<svg width="97" height="100" viewBox="0 0 97 100" fill="none" xmlns="http://www.w3.org/2000/svg">
<g clip-path="url(#clip0)">
<path d="M96.242 83.3333C96.242 92.5 89.0238 100 80.2016 100H16.0403C7.21815 100 0 92.5 0 83.3333V16.6667C0 7.5 7.21815 0 16.0403 0H80.2016C89.0238 0 96.242 7.5 96.242 16.6667V83.3333Z" fill="#563D7C"/>
<path d="M26.1519 21.7324H53.4361C58.4684 21.7324 62.5099 22.9252 65.545 25.3272C68.5801 27.7292 70.1055 31.3403 70.1055 36.1932C70.1055 39.1344 69.4136 41.6507 68.0297 43.7422C66.6458 45.8337 64.6644 47.4677 62.0853 48.6115V48.7749C65.545 49.5429 68.1712 51.2422 69.9482 53.8729C71.7253 56.52 72.6216 59.8207 72.6216 63.8076C72.6216 66.0952 72.2285 68.2357 71.4422 70.2128C70.6559 72.2063 69.4293 73.922 67.7466 75.3599C66.064 76.7978 63.9253 77.9416 61.299 78.7912C58.6728 79.6409 55.5591 80.0658 51.9422 80.0658H26.1519V21.7324ZM35.9805 46.1605H52.0208C54.3797 46.1605 56.3454 45.4743 57.918 44.069C59.4906 42.6638 60.2769 40.6703 60.2769 38.056C60.2769 35.1148 59.5692 33.0396 58.1539 31.8468C56.7386 30.654 54.6942 30.0494 52.0208 30.0494H35.9805V46.1605ZM35.9805 71.7324H53.3575C56.3454 71.7324 58.6728 70.9318 60.3083 69.3141C61.9595 67.7128 62.793 65.4252 62.793 62.4841C62.793 59.5919 61.9753 57.386 60.3083 55.8174C58.6414 54.2488 56.3454 53.4971 53.3575 53.4971H35.9805V71.7324Z" fill="white"/>
</g>
<defs>
<clipPath id="clip0">
<rect width="96.242" height="100" fill="white"/>
</clipPath>
</defs>
</svg>
